HIERARCHY
ROOT Hips
{
  OFFSET 179.979 97.3047 303.174
  CHANNELS 6 Xposition Yposition Zposition Zrotation Xrotation Yrotation
  JOINT Spine
  {
    OFFSET 0.000859786 9.92346 -1.22733
    CHANNELS 3 Zrotation Xrotation Yrotation
    JOINT Spine1
    {
      OFFSET 0 11.732 0
      CHANNELS 3 Zrotation Xrotation Yrotation
      JOINT Spine2
      {
        OFFSET 0 13.4588 0
        CHANNELS 3 Zrotation Xrotation Yrotation
        JOINT Neck
        {
          OFFSET 2.54812e-05 15.0278 0.877907
          CHANNELS 3 Zrotation Xrotation Yrotation
          JOINT Head
          {
            OFFSET 0 10.3218 3.14243
            CHANNELS 3 Zrotation Xrotation Yrotation
            End Site
            {
              OFFSET 0 0 0
            }
          }
        }
        JOINT LeftShoulder
        {
          OFFSET 6.10582 9.10629 0.757062
          CHANNELS 3 Zrotation Xrotation Yrotation
          JOINT LeftArm
          {
            OFFSET 0 12.9223 0
            CHANNELS 3 Zrotation Xrotation Yrotation
            JOINT LeftForeArm
            {
              OFFSET 0 27.4047 0
              CHANNELS 3 Zrotation Xrotation Yrotation
              JOINT LeftHand
              {
                OFFSET -1.28204e-05 27.6145 0
                CHANNELS 3 Zrotation Xrotation Yrotation
                End Site
                {
                  OFFSET 0 0 0
                }
              }
            }
          }
        }
        JOINT RightShoulder
        {
          OFFSET -6.1057 9.10638 0.757076
          CHANNELS 3 Zrotation Xrotation Yrotation
          JOINT RightArm
          {
            OFFSET 0 12.9223 0
            CHANNELS 3 Zrotation Xrotation Yrotation
            JOINT RightForeArm
            {
              OFFSET 0 27.4047 0
              CHANNELS 3 Zrotation Xrotation Yrotation
              JOINT RightHand
              {
                OFFSET 1.28428e-05 27.6145 1.44975e-05
                CHANNELS 3 Zrotation Xrotation Yrotation
                End Site
                {
                  OFFSET 0 0 0
                }
              }
            }
          }
        }
      }
    }
  }
  JOINT LeftUpLeg
  {
    OFFSET 9.12387 -6.65719 -0.0554031
    CHANNELS 3 Zrotation Xrotation Yrotation
    JOINT LeftLeg
    {
      OFFSET 0 40.5994 0
      CHANNELS 3 Zrotation Xrotation Yrotation
      JOINT LeftFoot
      {
        OFFSET 0 42.099 0
        CHANNELS 3 Zrotation Xrotation Yrotation
        JOINT LeftToeBase
        {
          OFFSET 0 15.7216 0
          CHANNELS 3 Zrotation Xrotation Yrotation
          End Site
          {
            OFFSET 0 0 0
          }
        }
      }
    }
  }
  JOINT RightUpLeg
  {
    OFFSET -9.12503 -6.6556 -0.0553527
    CHANNELS 3 Zrotation Xrotation Yrotation
    JOINT RightLeg
    {
      OFFSET 0 40.5994 0
      CHANNELS 3 Zrotation Xrotation Yrotation
      JOINT RightFoot
      {
        OFFSET 0 42.099 0
        CHANNELS 3 Zrotation Xrotation Yrotation
        JOINT RightToeBase
        {
          OFFSET 0 15.7216 0
          CHANNELS 3 Zrotation Xrotation Yrotation
          End Site
          {
            OFFSET 0 0 0
          }
        }
      }
    }
  }
}
MOTION
Frames:	16
Frame Time:	0.0333333
96.3216 94.0762 -58.2536 4.23072 -7.64167 -6.16376 -0.544909 -1.82686 -0.0325685 -1.10594 10.2944 0.118042 -1.11855 16.8889 0.121076 -6.15739 -13.9374 -1.38957 13.946 -13.0775 -3.64964 -98.8535 -12.8463 90.5753 -3.17064 54.686 57.6732 46.2811 -14.3096 -0.521208 -4.93119 -1.92647 33.7317 105.575 -12.4118 -90.831 -44.3142 48.0382 -5.08968 -77.4202 -7.45082 0.637744 -1.27943 2.33169 -26.0929 -175.391 9.20077 -8.89693 -9.26713 -41.4993 -7.72263 10.8548 79.7127 -10.9519 -0.965263 26.367 -3.60229 167.055 27.2922 10.5961 3.52557 -65.1185 -7.71632 14.814 58.2161 -13.6325 0.963537 26.3682 3.55537 
97.0812 93.5737 -57.5944 3.93322 -7.92235 -6.54548 -0.5445 -1.94638 0.0245861 -1.10958 10.0549 0.231629 -1.13585 16.6494 0.23776 -6.9163 -12.2043 -1.88657 14.6508 -13.442 -4.37294 -99.3199 -12.2537 90.6869 10.7879 54.4886 50.7302 37.7999 -14.0789 -0.614038 -6.40455 1.26207 35.3243 107.019 -12.2358 -90.9049 -41.3865 50.593 -3.17803 -76.042 -8.38864 0.678403 -1.20525 0.943212 -28.9179 -174.941 9.16041 -9.39174 -10.7226 -43.2433 -8.63575 13.26 81.1761 -12.5471 -0.965263 26.367 -3.60229 163.791 28.6511 15.0162 2.54668 -68.3046 -9.55261 18.9047 54.9844 -13.0933 0.963537 26.3682 3.55537 
97.4819 93.7969 -56.7389 3.75136 -8.19193 -5.84967 -0.575568 -2.17537 0.125429 -1.17964 9.59573 0.44214 -1.23111 16.19 0.453685 -7.55454 -10.6795 -2.96072 15.5372 -12.5131 -5.84546 -99.6223 -11.6892 90.7947 24.3272 55.5937 38.9083 25.7865 -13.5194 -0.658053 -9.13037 3.052 42.6186 107.88 -12.8725 -90.7623 -37.1366 54.7901 -2.80673 -71.7551 -10.9674 0.79212 -1.17469 -1.59664 -30.2819 -175.128 7.98135 -9.77767 -10.0593 -42.6012 -7.62528 11.787 81.1836 -10.6735 -0.965263 26.367 -3.60229 161.507 27.6029 17.6234 3.45678 -68.4677 -9.38554 20.8918 55.5308 -14.0437 0.963537 26.3682 3.55537 
97.6913 94.6644 -55.8363 3.46458 -8.36541 -4.25882 -0.608792 -2.50723 0.106674 -1.24255 8.93189 0.411385 -1.29015 15.5262 0.421469 -8.10942 -8.32621 -3.77471 16.9025 -13.0454 -7.00405 -100.992 -11.8656 90.7987 35.4854 56.3247 21.2086 14.7403 -13.1984 -0.623537 -11.2115 -2.62081 54.4054 108.147 -13.9111 -90.4982 -33.1112 59.0646 -3.72278 -64.434 -14.57 0.95233 -1.51526 -5.31339 -31.72 -175.668 6.10865 -7.9957 -9.39544 -39.711 -7.13068 10.9527 79.6418 -9.9021 -0.965263 26.367 -3.60229 160.347 24.6841 18.7654 4.92993 -65.912 -5.85962 21.4957 61.275 -13.9782 0.963537 26.3682 3.55537 
97.7599 95.9672 -54.9056 2.66399 -8.06238 -2.68457 -0.547167 -2.96508 0.0743738 -1.1121 8.01715 0.321641 -1.14883 14.6115 0.328883 -8.65853 -6.32624 -4.59137 18.056 -13.4815 -8.142 -102.895 -12.7227 90.6695 40.2586 56.605 3.20194 14.9925 -14.1417 -0.664396 -12.0905 -11.8727 69.9604 108.25 -14.8575 -90.2523 -30.1337 61.6016 -6.46408 -53.8728 -18.2858 1.1087 -1.04202 -9.71771 -29.0901 -175.453 4.30408 -6.46008 -8.48292 -35.8281 -6.30166 8.39684 76.5127 -7.59941 -0.965263 26.367 -3.60229 161.242 21.2149 18.1016 5.0676 -60.7356 -1.04765 14.4156 65.4313 -8.25817 0.963537 26.3682 3.55537 
97.7886 97.1929 -54.0007 2.00359 -7.70203 -1.27507 -0.552858 -3.42111 0.0940819 -1.12176 7.1048 0.3581 -1.16267 13.6991 0.365505 -8.8757 -4.92744 -5.38212 18.7653 -13.0916 -9.23106 -103.468 -13.9641 90.4138 42.4493 57.0121 -4.50637 20.9688 -15.4687 -0.741725 -9.83868 -14.933 72.0049 108.348 -15.1341 -90.1797 -28.0328 62.277 -8.41861 -40.8361 -19.1138 1.1048 1.79288 -12.3579 -20.8282 -175.246 2.74854 -4.37117 -8.07464 -32.0487 -6.19857 7.21711 72.9059 -6.85962 -0.965263 26.367 -3.60229 162.697 17.5823 16.3553 3.5621 -54.1856 2.11169 2.88595 66.2877 -0.364662 0.963537 26.3682 3.55537 
97.7602 98.1134 -53.0844 1.18364 -7.38018 0.246257 -0.455624 -3.8433 0.116752 -0.92464 6.26089 0.370096 -0.966839 12.8552 0.377167 -10.6441 -3.94682 -6.1088 20.3835 -11.966 -10.7742 -103.43 -14.603 90.2764 43.2373 56.5433 -0.863428 26.7051 -17.4613 -0.827809 -9.48996 -14.1415 55.9431 107.907 -14.9143 -90.2385 -25.2097 61.8144 -10.6335 -28.6342 -16.8296 0.927952 7.0611 -11.7113 -8.95243 -174.525 1.79188 -3.85217 -7.07425 -29.7508 -4.97263 4.51109 70.0832 -4.62414 -0.965263 26.367 -3.60229 164.945 13.7593 13.7614 1.20504 -47.0452 4.65038 -6.92234 67.1348 7.72021 0.963537 26.3682 3.55537 
97.5985 98.64 -52.206 0.963624 -7.25084 1.90489 -0.463825 -4.16938 0.204406 -0.943424 5.60794 0.545276 -1.00615 12.2021 0.555025 -12.5131 -3.23401 -7.10371 21.8233 -10.9543 -12.5878 -102.893 -14.8168 90.2309 44.1052 55.4388 4.55629 31.9059 -18.8476 -0.870134 -10.53 -7.94205 32.416 107.643 -15.0181 -90.2126 -21.8988 60.4965 -13.6942 -18.526 -13.4923 0.69886 11.6722 -5.57471 -0.151935 -173.933 1.14776 -3.40604 -6.80927 -28.4513 -3.89363 2.28747 68.0226 -2.55301 -0.965263 26.367 -3.60229 166.457 9.52465 10.7983 -0.207069 -39.7863 7.2791 -15.1743 68.4747 15.243 0.963537 26.3682 3.55537 
97.3949 98.8976 -51.3619 1.03326 -7.11733 3.56956 -0.503032 -4.43297 0.362381 -1.02709 5.07892 0.870562 -1.12799 11.6727 0.885279 -14.6811 -2.65005 -8.04247 23.688 -10.4995 -14.3918 -102.378 -15.474 90.0958 45.8908 54.1548 7.26534 37.5588 -18.5836 -0.813914 -9.13483 0.166944 13.646 107.389 -15.4213 -90.1115 -15.9285 59.3454 -18.0358 -13.5915 -11.9514 0.583832 13.5683 2.0071 -4.57745 -173.482 0.682386 -2.37539 -7.16355 -27.5439 -3.37607 1.21014 66.901 -1.37661 -0.965263 26.367 -3.60229 166.83 5.25596 7.8597 0.287758 -32.4511 9.94618 -20.7776 68.9124 20.4355 0.963537 26.3682 3.55537 
97.1026 98.8719 -50.5346 1.3935 -7.28638 5.14456 -0.570963 -4.54253 0.584641 -1.17157 4.85683 1.33397 -1.32686 11.4495 1.35595 -16.2744 -1.76894 -9.08504 24.9897 -11.6198 -15.8611 -102.553 -16.109 89.9626 47.0764 52.1518 9.54321 44.7117 -17.6739 -0.687745 -6.89762 4.08236 5.99459 107.031 -16.4392 -89.8591 -7.5066 58.23 -25.4982 -14.7832 -12.407 0.614993 14.7363 6.90922 -18.6227 -173.289 0.0720667 -1.16391 -7.54845 -27.1781 -3.05943 0.496513 66.8759 -0.618305 -0.965263 26.367 -3.60229 166.277 0.976746 6.07611 1.62104 -25.6975 10.3814 -21.5423 69.6574 21.105 0.963537 26.3682 3.55537 
96.6411 98.6673 -49.7676 1.85924 -7.3791 6.31393 -0.681094 -4.59677 0.755578 -1.3985 4.74445 1.70694 -1.59754 11.336 1.73463 -16.8585 -1.39668 -9.89639 25.3903 -12.8052 -16.6678 -103.061 -17.0706 89.7507 47.1487 50.4488 10.3423 53.0498 -16.6751 -0.506772 -6.25688 3.59868 9.59604 106.703 -17.981 -89.4806 -1.85539 56.3902 -34.6543 -17.1039 -12.6779 0.652687 13.2539 10.0522 -30.4158 -173.161 -0.313398 0.0727211 -7.97929 -27.2249 -3.06515 -0.0169427 67.4343 -0.334582 -0.965263 26.367 -3.60229 165.137 -2.39928 5.69324 3.43226 -20.261 8.95814 -16.8252 69.8319 17.2373 0.963537 26.3682 3.55537 
96.0379 98.3951 -49.1214 2.26415 -7.37143 6.65327 -0.79617 -4.66039 0.893035 -1.63332 4.61282 2.01384 -1.86826 11.2032 2.04592 -16.6035 -0.783878 -10.2119 25.2298 -14.0876 -16.7456 -103.886 -18.3404 89.4486 45.8057 49.522 10.0627 60.9005 -15.4973 -0.293522 -4.56542 0.759229 21.5472 106.15 -18.7241 -89.3161 1.94938 54.9097 -43.1429 -18.4873 -12.9693 0.679246 11.3364 10.9146 -31.9606 -173.097 -0.662119 1.26175 -8.38941 -27.2901 -3.53604 0.0482436 68.3807 -0.907949 -0.965263 26.367 -3.60229 164.355 -3.95501 5.95637 4.62117 -17.6413 6.69555 -10.9271 70.1714 12.2854 0.963537 26.3682 3.55537 
95.2418 98.2134 -48.5808 2.49099 -7.26335 6.17383 -0.887659 -4.71545 1.00652 -1.81972 4.49879 2.26591 -2.08412 11.0881 2.30146 -15.9857 -1.01644 -10.1366 24.6151 -14.297 -16.3847 -105.087 -19.8049 89.0607 43.4626 49.2634 8.91051 66.8212 -14.0226 -0.0907995 -1.62203 -1.47871 34.7861 105.874 -19.0113 -89.2572 4.2569 54.2418 -45.5938 -19.0111 -13.2061 0.693927 10.0919 9.66214 -29.2393 -172.928 -0.96699 1.74481 -8.45772 -27.2555 -3.95386 -0.052276 68.7904 -1.62605 -0.965263 26.367 -3.60229 164.005 -4.13461 7.15955 4.19484 -17.6115 5.89746 -3.13382 69.7377 10.0256 0.963537 26.3682 3.55537 
94.2117 98.1314 -48.118 2.55908 -7.23908 5.38597 -0.938802 -4.73184 1.07411 -1.92432 4.46361 2.41538 -2.20623 11.0522 2.45308 -15.3953 -1.27619 -9.74923 24.2005 -14.5096 -15.7396 -106.06 -20.5257 88.8351 39.6662 49.9744 8.19137 70.602 -13.0079 0.0473616 1.40264 -3.03997 45.2322 105.873 -19.821 -89.0597 4.4513 54.4177 -43.1045 -18.5976 -12.8079 0.674772 8.97192 6.44791 -23.6887 -172.472 -1.27053 1.75152 -8.36095 -27.2294 -4.20447 -0.497052 68.4964 -2.0848 -0.965263 26.367 -3.60229 164.238 -3.69937 9.40938 3.47656 -18.737 4.14742 1.03966 70.6716 6.80826 0.963537 26.3682 3.55537 
93.1251 98.2253 -47.7302 2.41977 -7.42073 4.91238 -0.946967 -4.68479 0.94987 -1.93694 4.55956 2.16985 -2.19013 11.1493 2.20409 -14.6738 -1.53904 -9.22656 23.5129 -14.5973 -14.9293 -106.866 -21.2634 88.6002 35.7831 51.4022 8.22996 71.1623 -13.1028 0.0593039 2.96313 -4.38478 49.7228 106.211 -20.3409 -88.914 3.18409 54.9509 -39.5662 -18.3792 -12.862 0.674192 9.04717 2.97311 -17.1571 -171.749 -1.75343 0.998372 -7.675 -27.0369 -3.61796 -1.96592 67.5652 -1.45716 -0.965263 26.367 -3.60229 164.946 -3.58164 11.095 3.13819 -19.5525 3.04799 1.89465 71.187 4.82175 0.963537 26.3682 3.55537 
91.9703 98.4172 -47.3796 2.06247 -7.58982 4.75025 -0.874487 -4.64908 0.757917 -1.78483 4.63585 1.76569 -1.99064 11.2272 1.79378 -13.7694 -1.40545 -8.69842 22.455 -14.793 -14.0733 -107.376 -21.4756 88.5116 32.2094 53.55 9.08015 67.9669 -14.5634 -0.082257 3.60884 -5.85496 47.7959 106.853 -20.7358 -88.7779 1.90429 55.2601 -36.2132 -19.4437 -13.4634 0.70819 8.73113 0.648093 -12.3737 -170.657 -1.99371 0.158639 -6.98298 -26.9484 -2.80725 -3.69515 66.0534 -0.504826 -0.965263 26.367 -3.60229 166.169 -3.9725 10.6615 3.32881 -19.2508 3.45383 0.368538 71.0079 5.68191 0.963537 26.3682 3.55537 
